<svg width="25" height="21" viewBox="0 0 25 21" fill="none" xmlns="http://www.w3.org/2000/svg">
<path d="M3.66159 13.5661C3.42235 13.4585 3.14121 13.4966 2.93981 13.6633L0.236537 15.9076C0.0865047 16.0323 0 16.2147 0 16.4063V20.3437C0 20.7059 0.302767 20.9999 0.675819 20.9999H3.37909C3.75215 20.9999 4.05491 20.7059 4.05491 20.3437V14.162C4.05491 13.9061 3.90083 13.6738 3.66159 13.5661Z" fill="#F2C94C"/>
<path d="M10.6433 9.06442C10.4054 8.9568 10.1229 8.99486 9.9215 9.16155L7.21823 11.4059C7.06819 11.5305 6.98169 11.713 6.98169 11.9046V20.3438C6.98169 20.706 7.28446 21 7.65751 21H10.3608C10.7338 21 11.0366 20.706 11.0366 20.3438V9.66028C11.0366 9.40435 10.8825 9.17073 10.6433 9.06442Z" fill="#F2C94C"/>
<path d="M17.625 4.56271C17.3858 4.45509 17.1046 4.49315 16.9033 4.65984L14.2 6.90415C14.0499 7.02884 13.9634 7.21127 13.9634 7.40289V20.3438C13.9634 20.706 14.2662 21 14.6393 21H17.3425C17.7156 21 18.0184 20.706 18.0184 20.3438V5.15857C18.0184 4.90264 17.8656 4.67034 17.625 4.56271Z" fill="#F2C94C"/>
<path d="M24.6067 0.0608681C24.3688 -0.0467541 24.0849 -0.0100051 23.8849 0.157991L21.1816 2.40231C21.0316 2.52699 20.9451 2.70942 20.9451 2.90104V20.3437C20.9451 20.706 21.2478 21 21.6209 21H24.3242C24.6972 21 25 20.706 25 20.3437V0.656728C25 0.400797 24.8472 0.167178 24.6067 0.0608681Z" fill="#5F6670"/>
</svg>
