<svg width="62" height="44" viewBox="0 0 62 44" fill="none" xmlns="http://www.w3.org/2000/svg">
<path d="M9.15027 6H17.7003C19.9203 6 21.8803 6.45 23.5803 7.35C25.2803 8.23 26.6003 9.47 27.5403 11.07C28.4803 12.65 28.9503 14.46 28.9503 16.5C28.9503 18.54 28.4803 20.36 27.5403 21.96C26.6003 23.54 25.2803 24.78 23.5803 25.68C21.8803 26.56 19.9203 27 17.7003 27H9.15027V6ZM17.5803 25.08C19.4203 25.08 21.0303 24.72 22.4103 24C23.7903 23.26 24.8603 22.25 25.6203 20.97C26.3803 19.67 26.7603 18.18 26.7603 16.5C26.7603 14.82 26.3803 13.34 25.6203 12.06C24.8603 10.76 23.7903 9.75 22.4103 9.03C21.0303 8.29 19.4203 7.92 17.5803 7.92H11.3703V25.08H17.5803ZM52.8354 6V27H50.6454V17.31H37.5054V27H35.2854V6H37.5054V15.36H50.6454V6H52.8354Z" fill="#F2C94C"/>
<path d="M8.34822 34.1H10.2872C10.7959 34.1 11.2462 34.205 11.6382 34.415C12.0349 34.625 12.3429 34.9167 12.5622 35.29C12.7816 35.6587 12.8912 36.0787 12.8912 36.55C12.8912 37.0213 12.7816 37.4437 12.5622 37.817C12.3429 38.1857 12.0349 38.475 11.6382 38.685C11.2462 38.895 10.7959 39 10.2872 39H8.34822V34.1ZM10.2592 38.678C10.7119 38.678 11.1109 38.5893 11.4562 38.412C11.8016 38.23 12.0676 37.978 12.2542 37.656C12.4409 37.334 12.5342 36.9653 12.5342 36.55C12.5342 36.1347 12.4409 35.766 12.2542 35.444C12.0676 35.122 11.8016 34.8723 11.4562 34.695C11.1109 34.513 10.7119 34.422 10.2592 34.422H8.70522V38.678H10.2592ZM17.4284 39L16.2594 37.362C16.0868 37.3853 15.9281 37.397 15.7834 37.397H14.3834V39H14.0264V34.1H15.7834C16.3994 34.1 16.8824 34.247 17.2324 34.541C17.5824 34.8303 17.7574 35.234 17.7574 35.752C17.7574 36.1393 17.6571 36.466 17.4564 36.732C17.2604 36.9933 16.9781 37.1777 16.6094 37.285L17.8344 39H17.4284ZM15.7834 37.082C16.3061 37.082 16.7051 36.9677 16.9804 36.739C17.2558 36.5057 17.3934 36.1767 17.3934 35.752C17.3934 35.3273 17.2558 35.0007 16.9804 34.772C16.7051 34.5387 16.3061 34.422 15.7834 34.422H14.3834V37.082H15.7834ZM21.0385 39.035C20.5578 39.035 20.1238 38.9277 19.7365 38.713C19.3492 38.4937 19.0435 38.195 18.8195 37.817C18.6002 37.439 18.4905 37.0167 18.4905 36.55C18.4905 36.0833 18.6002 35.661 18.8195 35.283C19.0435 34.905 19.3492 34.6087 19.7365 34.394C20.1238 34.1747 20.5578 34.065 21.0385 34.065C21.5192 34.065 21.9532 34.1723 22.3405 34.387C22.7278 34.6017 23.0312 34.898 23.2505 35.276C23.4745 35.654 23.5865 36.0787 23.5865 36.55C23.5865 37.0213 23.4745 37.446 23.2505 37.824C23.0312 38.202 22.7278 38.4983 22.3405 38.713C21.9532 38.9277 21.5192 39.035 21.0385 39.035ZM21.0385 38.706C21.4492 38.706 21.8202 38.6127 22.1515 38.426C22.4828 38.2393 22.7442 37.9827 22.9355 37.656C23.1268 37.3247 23.2225 36.956 23.2225 36.55C23.2225 36.144 23.1268 35.7777 22.9355 35.451C22.7442 35.1197 22.4828 34.8607 22.1515 34.674C21.8202 34.4873 21.4492 34.394 21.0385 34.394C20.6278 34.394 20.2545 34.4873 19.9185 34.674C19.5872 34.8607 19.3258 35.1197 19.1345 35.451C18.9432 35.7777 18.8475 36.144 18.8475 36.55C18.8475 36.956 18.9432 37.3247 19.1345 37.656C19.3258 37.9827 19.5872 38.2393 19.9185 38.426C20.2545 38.6127 20.6278 38.706 21.0385 38.706ZM28.7097 34.1V39H28.4157L25.0767 34.744V39H24.7197V34.1H25.0207L28.3527 38.356V34.1H28.7097ZM33.6969 38.678V39H30.3159V34.1H33.5919V34.422H30.6729V36.354H33.2839V36.669H30.6729V38.678H33.6969ZM36.1815 39.035C35.8222 39.035 35.4792 38.9743 35.1525 38.853C34.8305 38.727 34.5785 38.566 34.3965 38.37L34.5575 38.104C34.7302 38.286 34.9612 38.4353 35.2505 38.552C35.5445 38.664 35.8525 38.72 36.1745 38.72C36.6412 38.72 36.9935 38.6313 37.2315 38.454C37.4695 38.2767 37.5885 38.0457 37.5885 37.761C37.5885 37.5417 37.5255 37.3667 37.3995 37.236C37.2735 37.1053 37.1172 37.005 36.9305 36.935C36.7439 36.865 36.4919 36.7927 36.1745 36.718C35.8152 36.6293 35.5259 36.543 35.3065 36.459C35.0919 36.375 34.9075 36.2467 34.7535 36.074C34.6042 35.8967 34.5295 35.661 34.5295 35.367C34.5295 35.129 34.5925 34.912 34.7185 34.716C34.8445 34.5153 35.0359 34.3567 35.2925 34.24C35.5539 34.1233 35.8782 34.065 36.2655 34.065C36.5362 34.065 36.8022 34.1047 37.0635 34.184C37.3249 34.2633 37.5512 34.3707 37.7425 34.506L37.6095 34.793C37.4135 34.6577 37.1965 34.555 36.9585 34.485C36.7252 34.415 36.4942 34.38 36.2655 34.38C35.8129 34.38 35.4699 34.471 35.2365 34.653C35.0032 34.835 34.8865 35.0707 34.8865 35.36C34.8865 35.5793 34.9495 35.7543 35.0755 35.885C35.2015 36.0157 35.3579 36.116 35.5445 36.186C35.7312 36.256 35.9855 36.3307 36.3075 36.41C36.6669 36.4987 36.9539 36.585 37.1685 36.669C37.3832 36.753 37.5652 36.8813 37.7145 37.054C37.8685 37.222 37.9455 37.4507 37.9455 37.74C37.9455 37.978 37.8802 38.195 37.7495 38.391C37.6235 38.587 37.4275 38.7433 37.1615 38.86C36.8955 38.9767 36.5689 39.035 36.1815 39.035ZM43.0442 34.1V39H42.6872V36.669H39.4112V39H39.0542V34.1H39.4112V36.354H42.6872V34.1H43.0442ZM46.5683 39.035C45.9477 39.035 45.4647 38.8553 45.1193 38.496C44.7787 38.1367 44.6083 37.6117 44.6083 36.921V34.1H44.9653V36.907C44.9653 37.509 45.103 37.9593 45.3783 38.258C45.6537 38.5567 46.0527 38.706 46.5753 38.706C47.0933 38.706 47.49 38.5567 47.7653 38.258C48.0407 37.9593 48.1783 37.509 48.1783 36.907V34.1H48.5353V36.921C48.5353 37.6117 48.3627 38.1367 48.0173 38.496C47.672 38.8553 47.189 39.035 46.5683 39.035ZM53.0081 36.473C53.3581 36.5383 53.6241 36.676 53.8061 36.886C53.9928 37.096 54.0861 37.369 54.0861 37.705C54.0861 38.1203 53.9344 38.44 53.6311 38.664C53.3278 38.888 52.8774 39 52.2801 39H50.0961V34.1H52.1401C52.6721 34.1 53.0851 34.2097 53.3791 34.429C53.6778 34.6437 53.8271 34.9517 53.8271 35.353C53.8271 35.633 53.7524 35.8687 53.6031 36.06C53.4584 36.2513 53.2601 36.389 53.0081 36.473ZM50.4531 34.408V36.361H52.1261C52.5554 36.361 52.8844 36.2793 53.1131 36.116C53.3464 35.948 53.4631 35.703 53.4631 35.381C53.4631 35.0637 53.3464 34.8233 53.1131 34.66C52.8844 34.492 52.5554 34.408 52.1261 34.408H50.4531ZM52.2801 38.692C52.7561 38.692 53.1154 38.6103 53.3581 38.447C53.6054 38.279 53.7291 38.0223 53.7291 37.677C53.7291 37.3317 53.6054 37.0773 53.3581 36.914C53.1154 36.7507 52.7561 36.669 52.2801 36.669H50.4531V38.692H52.2801Z" fill="#F2C94C"/>
</svg>
