<svg width="46" height="46" viewBox="0 0 46 46" fill="none" xmlns="http://www.w3.org/2000/svg">
<path d="M39.6622 33.2146C40.347 30.6588 40.4347 27.9798 39.9185 25.3847C39.4023 22.7896 38.2961 20.348 36.6853 18.2489C35.0746 16.1497 33.0025 14.4492 30.6295 13.2789C28.2564 12.1087 25.6459 11.5 23 11.5C20.3541 11.5 17.7436 12.1087 15.3705 13.2789C12.9975 14.4492 10.9254 16.1497 9.31465 18.2489C7.70391 20.348 6.59765 22.7896 6.08145 25.3847C5.56526 27.9798 5.65296 30.6589 6.33778 33.2146" stroke="#F2C94C" stroke-width="2" stroke-linecap="round"/>
<path d="M24.4676 29.866C25.4019 31.2256 24.7449 33.2998 23 34.4988C21.2552 35.6978 19.0833 35.5676 18.149 34.208C17.0123 32.5539 12.6934 22.1695 10.8339 17.6454C10.6301 17.1496 11.2384 16.7316 11.6281 17.0996C15.1849 20.4573 23.3309 28.2118 24.4676 29.866Z" stroke="#F2C94C" stroke-width="2"/>
<path d="M23 11.5V15.3333" stroke="#F2C94C" stroke-width="2" stroke-linecap="round"/>
<path d="M10.8023 16.5518L13.5129 19.2623" stroke="#F2C94C" stroke-linecap="round"/>
<path d="M35.1977 16.5518L32.4871 19.2623" stroke="#F2C94C" stroke-width="2" stroke-linecap="round"/>
<path d="M39.6623 33.2141L35.9596 32.222" stroke="#F2C94C" stroke-width="2" stroke-linecap="round"/>
<path d="M6.33771 33.2141L10.0404 32.222" stroke="#F2C94C" stroke-width="2" stroke-linecap="round"/>
</svg>
