<svg width="42" height="36" viewBox="0 0 42 36" fill="none" xmlns="http://www.w3.org/2000/svg">
<path d="M10.8451 28.48C11.2091 28.5407 11.4821 28.6737 11.6641 28.879C11.8507 29.0843 11.9441 29.3573 11.9441 29.698C11.9441 30.118 11.7971 30.44 11.5031 30.664C11.2091 30.888 10.7727 31 10.1941 31H8.08708V26.1H10.0611C10.5744 26.1 10.9734 26.2073 11.2581 26.422C11.5474 26.6367 11.6921 26.9447 11.6921 27.346C11.6921 27.6307 11.6174 27.8687 11.4681 28.06C11.3187 28.2513 11.1111 28.3913 10.8451 28.48ZM8.44408 28.368H10.0541C10.4647 28.368 10.7797 28.284 10.9991 28.116C11.2184 27.948 11.3281 27.7053 11.3281 27.388C11.3281 27.066 11.2184 26.821 10.9991 26.653C10.7797 26.485 10.4647 26.401 10.0541 26.401H8.44408V28.368ZM10.2011 30.699C11.1251 30.699 11.5871 30.3583 11.5871 29.677C11.5871 29.327 11.4704 29.0703 11.2371 28.907C11.0037 28.7437 10.6584 28.662 10.2011 28.662H8.44408V30.699H10.2011ZM15.3041 27.892C15.8827 27.892 16.3214 28.0203 16.6201 28.277C16.9234 28.5337 17.0751 28.914 17.0751 29.418C17.0751 29.936 16.9141 30.3303 16.5921 30.601C16.2747 30.867 15.8151 31 15.2131 31H13.3371V26.1H13.6941V27.892H15.3041ZM15.2201 30.699C15.7101 30.699 16.0811 30.5917 16.3331 30.377C16.5851 30.1623 16.7111 29.845 16.7111 29.425C16.7111 28.6037 16.2141 28.193 15.2201 28.193H13.6941V30.699H15.2201ZM17.9781 26.1H18.3351V31H17.9781V26.1ZM20.0978 26.1H20.4548V30.398L23.7938 26.1H24.1088V31H23.7518V26.709L20.4128 31H20.0978V26.1ZM22.0858 25.729C21.7592 25.729 21.4955 25.6543 21.2948 25.505C21.0988 25.351 20.9985 25.141 20.9938 24.875H21.2808C21.2855 25.071 21.3602 25.225 21.5048 25.337C21.6542 25.449 21.8478 25.505 22.0858 25.505C22.3192 25.505 22.5082 25.449 22.6528 25.337C22.8022 25.225 22.8792 25.071 22.8838 24.875H23.1708C23.1662 25.141 23.0635 25.351 22.8628 25.505C22.6668 25.6543 22.4078 25.729 22.0858 25.729ZM28.9472 26.422H27.1832V31H26.8262V26.422H25.0622V26.1H28.9472V26.422ZM29.9006 26.1H30.2576V30.398L33.5966 26.1H33.9116V31H33.5546V26.709L30.2156 31H29.9006V26.1Z" fill="#C5C7CD"/>
<path d="M31 9.5L31.7071 8.79289L32.4142 9.5L31.7071 10.2071L31 9.5ZM25.7696 2.85539L31.7071 8.79289L30.2929 10.2071L24.3554 4.26961L25.7696 2.85539ZM31.7071 10.2071L25.7696 16.1446L24.3554 14.7304L30.2929 8.79289L31.7071 10.2071ZM31 10.5L23.2812 10.5V8.5L31 8.5L31 10.5Z" fill="#CCD2E3"/>
<path fill-rule="evenodd" clip-rule="evenodd" d="M21.5 8.5L17.3437 8.5C16.7915 8.5 16.3437 8.94771 16.3438 9.5C16.3438 10.0523 16.7915 10.5 17.3438 10.5L21.5 10.5L21.5 17C21.5 18.1046 20.6046 19 19.5 19L14 19C12.8954 19 12 18.1046 12 17L12 2C12 0.89543 12.8954 -3.76118e-07 14 -3.27835e-07L19.5 -8.74228e-08C20.6046 -3.91405e-08 21.5 0.895431 21.5 2L21.5 8.5Z" fill="#CCD2E3"/>
</svg>
