<svg width="56" height="58" viewBox="0 0 56 58" fill="none" xmlns="http://www.w3.org/2000/svg">
<rect width="56" height="56" rx="8" fill="#F2C94C"/>
<path fill-rule="evenodd" clip-rule="evenodd" d="M5 32.144L7.54093 31.7759L7.60623 32.233L7.68935 32.6545L7.7784 33.0464L7.8912 33.4085L8.01587 33.741L8.15242 34.0437L8.30083 34.3109L8.46706 34.5484L8.55611 34.6552L8.6511 34.7502L8.74609 34.8452L8.84702 34.9283L8.95388 35.0114L9.06074 35.0827L9.17354 35.148L9.29227 35.2073L9.41101 35.2548L9.53568 35.3023L9.66629 35.3379L9.7969 35.3736L9.93344 35.3973L10.07 35.4151L10.3609 35.427L10.6696 35.4151L10.9546 35.3795L11.0911 35.3498L11.2217 35.3142L11.3464 35.2726L11.4711 35.2311L11.5898 35.1776L11.6967 35.1183L11.8095 35.053L11.9104 34.9817L12.0054 34.9046L12.1004 34.8274L12.1894 34.7383L12.2725 34.6433L12.4209 34.4415L12.5456 34.2337L12.6525 34.014L12.7415 33.7884L12.8068 33.5569L12.8543 33.3135L12.884 33.0642L12.8959 32.8029L12.8899 32.6427L12.884 32.4824L12.8662 32.328L12.8365 32.1796L12.8009 32.0371L12.7534 31.9065L12.7 31.7759L12.6347 31.6572L12.5575 31.5384L12.4744 31.4316L12.3734 31.3188L12.2606 31.2178L12.1419 31.111L12.0054 31.016L11.851 30.921L11.6907 30.826L11.3939 30.6954L10.9427 30.5114L9.60098 30.0127L9.09636 29.8168L8.63329 29.609L8.20585 29.3893L7.81402 29.1578L7.46375 28.9144L7.15504 28.665L6.88195 28.4038L6.65042 28.1307L6.37733 27.7211L6.13392 27.2936L5.93207 26.8484L5.76584 26.3794L5.63523 25.8926L5.54618 25.3879L5.48681 24.8596L5.469 24.3075L5.47494 23.9453L5.50462 23.5891L5.54618 23.2388L5.61149 22.8945L5.68866 22.5561L5.78365 22.2237L5.89645 21.8971L6.02706 21.5765L6.17548 21.2738L6.34171 20.9829L6.51981 20.7157L6.71572 20.4664L6.92351 20.2348L7.1491 20.0211L7.38657 19.8311L7.63592 19.659L7.90901 19.5046L8.19397 19.3681L8.49675 19.2553L8.80546 19.1662L9.12604 19.095L9.46444 19.0416L9.81471 19.0119L10.1828 19L10.7765 19.0237L11.3286 19.095L11.5898 19.1484L11.8451 19.2197L12.0885 19.2968L12.32 19.3859L12.5456 19.4928L12.7593 19.6055L12.9671 19.7362L13.163 19.8727L13.3471 20.0271L13.5252 20.1933L13.6914 20.3714L13.8458 20.5614L14.1367 20.971L14.3919 21.4163L14.6116 21.8853L14.7897 22.3958L14.9381 22.9361L15.045 23.506L15.1162 24.1115L15.1459 24.7527L12.5337 24.9189L12.4862 24.5627L12.4269 24.2362L12.3556 23.9394L12.2725 23.6603L12.1716 23.411L12.0647 23.1854L11.946 22.9836L11.8807 22.8945L11.8154 22.8055L11.7441 22.7283L11.667 22.657L11.5839 22.5917L11.5007 22.5264L11.4117 22.473L11.3226 22.4196L11.2217 22.3721L11.1208 22.3305L11.0139 22.2949L10.9071 22.2593L10.6755 22.2118L10.4203 22.1821L10.1531 22.1702L9.88001 22.1821L9.61879 22.2118L9.36945 22.2652L9.25665 22.3008L9.14385 22.3424L9.03105 22.3839L8.92419 22.4374L8.82327 22.4967L8.72828 22.5561L8.63329 22.6214L8.54424 22.6986L8.46113 22.7758L8.37801 22.8589L8.32458 22.9183L8.28302 22.9776L8.23553 23.037L8.19397 23.1023L8.15835 23.1676L8.12867 23.2329L8.09305 23.3041L8.0693 23.3813L8.02181 23.5297L7.99212 23.696L7.97431 23.8681L7.96838 24.0462L7.97431 24.2065L7.99212 24.3668L8.02181 24.5212L8.06336 24.6696L8.11679 24.8061L8.1821 24.9427L8.26521 25.0733L8.3602 25.198L8.42551 25.2751L8.50268 25.3523L8.59173 25.4295L8.69266 25.5067L8.92419 25.661L9.20322 25.8213L9.5238 25.9757L9.88595 26.136L10.7527 26.4566L11.6432 26.795L12.041 26.9612L12.4091 27.1333L12.7475 27.3055L13.0502 27.4777L13.3233 27.6498L13.5667 27.8279L13.7923 28.0179L14.0001 28.2198L14.196 28.4394L14.3801 28.671L14.5522 28.9203L14.7125 29.1875L14.8609 29.4665L14.9975 29.7693L15.1162 30.0839L15.2231 30.4223L15.3121 30.7726L15.3893 31.1407L15.4427 31.5265L15.4843 31.9362L15.514 32.3518L15.5199 32.7911L15.508 33.2007L15.4784 33.5985L15.4309 33.9903L15.3656 34.3762L15.2765 34.7561L15.1697 35.1242L15.045 35.4923L14.9025 35.8485L14.7363 36.1988L14.5582 36.5194L14.3623 36.8221L14.1545 37.1012L13.9289 37.3564L13.6855 37.582L13.4302 37.7898L13.1571 37.9739L12.8662 38.1341L12.5575 38.2707L12.231 38.3894L11.8866 38.4844L11.5245 38.5616L11.1445 38.615L10.7468 38.6447L10.3312 38.6566L9.73753 38.6328L9.17947 38.5557L8.91232 38.4963L8.65704 38.425L8.4077 38.3419L8.16429 38.241L7.93276 38.1341L7.7131 38.0095L7.49937 37.8729L7.29752 37.7245L7.10161 37.5642L6.91163 37.3861L6.73353 37.2021L6.5673 37.0002L6.25265 36.5668L5.97956 36.1097L5.74209 35.6585L5.54618 35.2311L5.1781 34.2812L5 32.144Z" fill="#292F38"/>
<path fill-rule="evenodd" clip-rule="evenodd" d="M20.6255 38.3241V22.5323H16.7904V19.3206H27.0669V22.5323H23.2318V38.3241H20.6255Z" fill="#292F38"/>
<path fill-rule="evenodd" clip-rule="evenodd" d="M30.908 28.8075L30.9258 29.5912L30.9733 30.3273L31.0505 31.016L31.1633 31.6512L31.3058 32.2389L31.4839 32.7733L31.6917 33.266L31.8045 33.4916L31.9291 33.7053L32.1904 34.0971L32.3269 34.2753L32.4694 34.4355L32.6178 34.584L32.7662 34.7264L32.9206 34.8452L33.0809 34.958L33.2412 35.053L33.4133 35.142L33.5796 35.2133L33.7577 35.2726L33.9358 35.3142L34.1198 35.3498L34.3098 35.3676L34.4998 35.3736L34.6957 35.3676L34.8856 35.3498L35.0697 35.3142L35.2478 35.2726L35.4259 35.2133L35.5981 35.142L35.7643 35.0589L35.9305 34.958L36.0849 34.8511L36.2392 34.7264L36.3876 34.5899L36.5361 34.4415L36.6726 34.2812L36.8092 34.1031L37.0704 33.7172L37.1891 33.5035L37.3019 33.2779L37.5097 32.7911L37.6759 32.2508L37.8184 31.6571L37.9253 31.01L38.0084 30.3095L38.0499 29.5615L38.0678 28.76L38.0499 27.9704L38.0084 27.2343L37.9312 26.5456L37.8243 25.9104L37.6878 25.3286L37.5216 24.7943L37.3257 24.3134L37.2188 24.0878L37.1001 23.88L36.8448 23.5001L36.7082 23.3338L36.5717 23.1735L36.4233 23.0311L36.2748 22.9004L36.1205 22.7817L35.9602 22.6748L35.794 22.5799L35.6277 22.5027L35.4496 22.4314L35.2715 22.378L35.0875 22.3305L34.8975 22.3008L34.7016 22.283L34.4998 22.2771L34.2979 22.283L34.102 22.3008L33.918 22.3365L33.728 22.378L33.5499 22.4374L33.3777 22.5027L33.2055 22.5858L33.0393 22.6867L32.879 22.7936L32.7247 22.9123L32.5762 23.0489L32.4338 23.1913L32.2913 23.3516L32.1547 23.5238L31.8995 23.9097L31.6679 24.3371L31.472 24.7883L31.2998 25.2455L31.1574 25.6729L30.9733 26.3556L30.9258 26.5575L30.914 26.6109L30.908 26.6228V26.6287V28.8075ZM28.2246 28.9441L28.2602 27.5549L28.3077 26.8959L28.3671 26.2725L28.4502 25.6788L28.5511 25.1089L28.6758 24.5687L28.8123 24.064L28.9311 23.7078L29.0557 23.3576L29.1864 23.0192L29.3348 22.6867L29.4891 22.3661L29.6554 22.0574L29.8275 21.7547L30.0175 21.4578L30.2134 21.1788L30.4093 20.9176L30.6112 20.6801L30.813 20.4545L31.0268 20.2527L31.2405 20.0627L31.4542 19.9024L31.6798 19.754L31.9885 19.5759L32.3091 19.4215L32.6416 19.2909L32.9859 19.19L33.3421 19.1069L33.7102 19.0475L34.0901 19.0119L34.4819 19L34.8322 19.0119L35.1765 19.0416L35.509 19.0891L35.8355 19.1603L36.1502 19.2553L36.4589 19.3681L36.7557 19.4987L37.0466 19.653L37.3316 19.8252L37.6047 20.0152L37.8659 20.2289L38.1212 20.4604L38.3705 20.7157L38.608 20.9888L38.8336 21.2856L39.0533 21.6003L39.457 22.283L39.8013 23.0311L40.0981 23.8384L40.3415 24.7171L40.5315 25.6551L40.6681 26.6584L40.7452 27.727L40.7749 28.855L40.7512 29.977L40.6681 31.0338L40.5374 32.0252L40.3475 32.9573L40.11 33.8241L39.8132 34.6315L39.4688 35.3736L39.0651 36.0563L38.8455 36.3709L38.6199 36.6678L38.3883 36.9409L38.1449 37.1902L37.8896 37.4277L37.6284 37.6414L37.3553 37.8314L37.0763 38.0035L36.7854 38.1579L36.4886 38.2885L36.1799 38.3954L35.8652 38.4903L35.5387 38.5616L35.2003 38.6091L34.856 38.6388L34.5057 38.6506L34.1495 38.6388L33.8052 38.6091L33.4727 38.5616L33.1462 38.4903L32.8256 38.4013L32.5169 38.2885L32.2141 38.1579L31.9232 38.0035L31.6442 37.8314L31.3711 37.6414L31.1039 37.4277L30.8487 37.1961L30.6052 36.9468L30.3678 36.6737L30.1422 36.3828L29.9225 36.0681L29.5248 35.3973L29.1804 34.6968L28.8895 34.0081L28.652 33.3669L28.2246 31.9659V28.9441Z" fill="#292F38"/>
<path fill-rule="evenodd" clip-rule="evenodd" d="M45.4174 22.5323V27.9288H46.8422L47.5546 27.911L47.8633 27.8873L48.1364 27.8576L48.3798 27.816L48.5876 27.7626L48.7657 27.7032L48.8429 27.6736L48.9141 27.6379L49.0388 27.5548L49.1575 27.4658L49.2703 27.3589L49.3772 27.2521L49.4781 27.1274L49.5672 26.9968L49.6562 26.8543L49.7334 26.6999L49.7987 26.5396L49.8581 26.3675L49.9115 26.1953L49.9531 26.0113L49.9828 25.8272L50.0065 25.6254L50.0184 25.4235L50.0243 25.2098L50.0184 24.9605L50.0006 24.723L49.9649 24.4915L49.9234 24.2777L49.864 24.07L49.7928 23.874L49.7097 23.6841L49.6087 23.5119L49.5019 23.3457L49.3891 23.2032L49.2703 23.0726L49.1397 22.9538L49.0744 22.9064L49.0032 22.8589L48.9319 22.8173L48.8607 22.7757L48.7895 22.7401L48.7123 22.7104L48.6351 22.6867L48.552 22.6629L48.4214 22.6333L48.267 22.6095L48.0771 22.5858L47.8574 22.568L47.329 22.5383L46.6879 22.5323H45.4174ZM42.8052 38.3241V19.3206H46.9966L48.083 19.3384L48.9676 19.3918L49.3297 19.4274L49.6384 19.4808L49.8996 19.5343L50.0065 19.5699L50.1015 19.6055L50.238 19.6649L50.3746 19.7302L50.5052 19.8014L50.6358 19.8845L50.7605 19.9677L50.8851 20.0686L51.1226 20.2823L51.3482 20.5317L51.5679 20.8107L51.7697 21.1194L51.9656 21.4578L52.1437 21.8318L52.2922 22.2355L52.4228 22.657L52.5296 23.1082L52.6068 23.5891L52.6662 24.0937L52.7018 24.6221L52.7137 25.1801L52.7077 25.6016L52.6899 26.0113L52.6543 26.4031L52.6068 26.7771L52.5474 27.1333L52.4762 27.4777L52.3871 27.7982L52.2862 28.1069L52.1734 28.3979L52.0547 28.6709L51.9241 28.9322L51.7935 29.1696L51.651 29.4012L51.5026 29.6089L51.3482 29.8049L51.182 29.983L51.0157 30.1492L50.8495 30.2976L50.6833 30.4342L50.5171 30.5529L50.3449 30.6538L50.1787 30.7488L50.0065 30.82L49.8343 30.8853L49.585 30.9507L49.3119 31.0041L49.0151 31.0516L48.6885 31.0931L47.9583 31.1466L47.1272 31.1644H45.4174V38.3241H42.8052Z" fill="#292F38"/>
<path d="M9.27056 54.04C8.86523 54.04 8.4999 53.9493 8.17456 53.768C7.84923 53.5813 7.59323 53.3253 7.40656 53C7.2199 52.6747 7.12656 52.3067 7.12656 51.896C7.12656 51.4853 7.2199 51.1173 7.40656 50.792C7.59323 50.4667 7.84923 50.2133 8.17456 50.032C8.4999 49.8507 8.86523 49.76 9.27056 49.76C9.6759 49.76 10.0412 49.8507 10.3666 50.032C10.6919 50.2133 10.9452 50.4667 11.1266 50.792C11.3132 51.1173 11.4066 51.4853 11.4066 51.896C11.4066 52.3067 11.3132 52.6747 11.1266 53C10.9452 53.3253 10.6919 53.5813 10.3666 53.768C10.0412 53.9493 9.6759 54.04 9.27056 54.04ZM9.27056 53.536C9.56923 53.536 9.8359 53.4693 10.0706 53.336C10.3106 53.1973 10.4972 53.0027 10.6306 52.752C10.7639 52.5013 10.8306 52.216 10.8306 51.896C10.8306 51.576 10.7639 51.2907 10.6306 51.04C10.4972 50.7893 10.3106 50.5973 10.0706 50.464C9.8359 50.3253 9.56923 50.256 9.27056 50.256C8.9719 50.256 8.70256 50.3253 8.46256 50.464C8.2279 50.5973 8.04123 50.7893 7.90256 51.04C7.76923 51.2907 7.70256 51.576 7.70256 51.896C7.70256 52.216 7.76923 52.5013 7.90256 52.752C8.04123 53.0027 8.2279 53.1973 8.46256 53.336C8.70256 53.4693 8.9719 53.536 9.27056 53.536ZM14.3805 54.04C13.9645 54.04 13.5912 53.9493 13.2605 53.768C12.9352 53.5867 12.6792 53.3333 12.4925 53.008C12.3058 52.6773 12.2125 52.3067 12.2125 51.896C12.2125 51.4853 12.3058 51.1173 12.4925 50.792C12.6792 50.4667 12.9352 50.2133 13.2605 50.032C13.5912 49.8507 13.9645 49.76 14.3805 49.76C14.7432 49.76 15.0658 49.832 15.3485 49.976C15.6365 50.1147 15.8632 50.32 16.0285 50.592L15.6045 50.88C15.4658 50.672 15.2898 50.5173 15.0765 50.416C14.8632 50.3093 14.6312 50.256 14.3805 50.256C14.0765 50.256 13.8018 50.3253 13.5565 50.464C13.3165 50.5973 13.1272 50.7893 12.9885 51.04C12.8552 51.2907 12.7885 51.576 12.7885 51.896C12.7885 52.2213 12.8552 52.5093 12.9885 52.76C13.1272 53.0053 13.3165 53.1973 13.5565 53.336C13.8018 53.4693 14.0765 53.536 14.3805 53.536C14.6312 53.536 14.8632 53.4853 15.0765 53.384C15.2898 53.2827 15.4658 53.128 15.6045 52.92L16.0285 53.208C15.8632 53.48 15.6365 53.688 15.3485 53.832C15.0605 53.9707 14.7378 54.04 14.3805 54.04ZM20.0102 50.296H18.4182V54H17.8502V50.296H16.2582V49.792H20.0102V50.296ZM22.2794 49.76C22.8288 49.76 23.2501 49.8987 23.5434 50.176C23.8368 50.448 23.9834 50.8533 23.9834 51.392V54H23.4394V53.344C23.3114 53.5627 23.1221 53.7333 22.8714 53.856C22.6261 53.9787 22.3328 54.04 21.9914 54.04C21.5221 54.04 21.1488 53.928 20.8714 53.704C20.5941 53.48 20.4554 53.184 20.4554 52.816C20.4554 52.4587 20.5834 52.1707 20.8394 51.952C21.1008 51.7333 21.5141 51.624 22.0794 51.624H23.4154V51.368C23.4154 51.0053 23.3141 50.7307 23.1114 50.544C22.9088 50.352 22.6128 50.256 22.2234 50.256C21.9568 50.256 21.7008 50.3013 21.4554 50.392C21.2101 50.4773 20.9994 50.5973 20.8234 50.752L20.5674 50.328C20.7808 50.1467 21.0368 50.008 21.3354 49.912C21.6341 49.8107 21.9488 49.76 22.2794 49.76ZM22.0794 53.592C22.3994 53.592 22.6741 53.52 22.9034 53.376C23.1328 53.2267 23.3034 53.0133 23.4154 52.736V52.048H22.0954C21.3754 52.048 21.0154 52.2987 21.0154 52.8C21.0154 53.0453 21.1088 53.24 21.2954 53.384C21.4821 53.5227 21.7434 53.592 22.0794 53.592ZM25.4955 49.792H26.0635V51.656H28.7115V49.792H29.2795V54H28.7115V52.144H26.0635V54H25.4955V49.792ZM32.6299 54.04C32.2246 54.04 31.8593 53.9493 31.5339 53.768C31.2086 53.5813 30.9526 53.3253 30.7659 53C30.5793 52.6747 30.4859 52.3067 30.4859 51.896C30.4859 51.4853 30.5793 51.1173 30.7659 50.792C30.9526 50.4667 31.2086 50.2133 31.5339 50.032C31.8593 49.8507 32.2246 49.76 32.6299 49.76C33.0353 49.76 33.4006 49.8507 33.7259 50.032C34.0513 50.2133 34.3046 50.4667 34.4859 50.792C34.6726 51.1173 34.7659 51.4853 34.7659 51.896C34.7659 52.3067 34.6726 52.6747 34.4859 53C34.3046 53.3253 34.0513 53.5813 33.7259 53.768C33.4006 53.9493 33.0353 54.04 32.6299 54.04ZM32.6299 53.536C32.9286 53.536 33.1953 53.4693 33.4299 53.336C33.6699 53.1973 33.8566 53.0027 33.9899 52.752C34.1233 52.5013 34.1899 52.216 34.1899 51.896C34.1899 51.576 34.1233 51.2907 33.9899 51.04C33.8566 50.7893 33.6699 50.5973 33.4299 50.464C33.1953 50.3253 32.9286 50.256 32.6299 50.256C32.3313 50.256 32.0619 50.3253 31.8219 50.464C31.5873 50.5973 31.4006 50.7893 31.2619 51.04C31.1286 51.2907 31.0619 51.576 31.0619 51.896C31.0619 52.216 31.1286 52.5013 31.2619 52.752C31.4006 53.0027 31.5873 53.1973 31.8219 53.336C32.0619 53.4693 32.3313 53.536 32.6299 53.536ZM38.6599 51.824C39.2305 51.9573 39.5159 52.3013 39.5159 52.856C39.5159 53.224 39.3799 53.5067 39.1079 53.704C38.8359 53.9013 38.4305 54 37.8919 54H35.9799V49.792H37.8359C38.3159 49.792 38.6919 49.8853 38.9639 50.072C39.2359 50.2587 39.3719 50.5253 39.3719 50.872C39.3719 51.1013 39.3079 51.2987 39.1799 51.464C39.0572 51.624 38.8839 51.744 38.6599 51.824ZM36.5319 51.664H37.7959C38.1212 51.664 38.3692 51.6027 38.5399 51.48C38.7159 51.3573 38.8039 51.1787 38.8039 50.944C38.8039 50.7093 38.7159 50.5333 38.5399 50.416C38.3692 50.2987 38.1212 50.24 37.7959 50.24H36.5319V51.664ZM37.8679 53.552C38.2305 53.552 38.5025 53.4933 38.6839 53.376C38.8652 53.2587 38.9559 53.0747 38.9559 52.824C38.9559 52.5733 38.8732 52.3893 38.7079 52.272C38.5425 52.1493 38.2812 52.088 37.9239 52.088H36.5319V53.552H37.8679ZM42.3751 52.128H41.4151V54H40.8471V49.792H41.4151V51.64H42.3831L43.8631 49.792H44.4791L42.8231 51.832L44.5991 54H43.9271L42.3751 52.128ZM46.8654 49.76C47.4147 49.76 47.836 49.8987 48.1294 50.176C48.4227 50.448 48.5694 50.8533 48.5694 51.392V54H48.0254V53.344C47.8974 53.5627 47.708 53.7333 47.4574 53.856C47.212 53.9787 46.9187 54.04 46.5774 54.04C46.108 54.04 45.7347 53.928 45.4574 53.704C45.18 53.48 45.0414 53.184 45.0414 52.816C45.0414 52.4587 45.1694 52.1707 45.4254 51.952C45.6867 51.7333 46.1 51.624 46.6654 51.624H48.0014V51.368C48.0014 51.0053 47.9 50.7307 47.6974 50.544C47.4947 50.352 47.1987 50.256 46.8094 50.256C46.5427 50.256 46.2867 50.3013 46.0414 50.392C45.796 50.4773 45.5854 50.5973 45.4094 50.752L45.1534 50.328C45.3667 50.1467 45.6227 50.008 45.9214 49.912C46.22 49.8107 46.5347 49.76 46.8654 49.76ZM46.6654 53.592C46.9854 53.592 47.26 53.52 47.4894 53.376C47.7187 53.2267 47.8894 53.0133 48.0014 52.736V52.048H46.6814C45.9614 52.048 45.6014 52.2987 45.6014 52.8C45.6014 53.0453 45.6947 53.24 45.8814 53.384C46.068 53.5227 46.3294 53.592 46.6654 53.592Z" fill="#292F38"/>
<path d="M7.45131 2.76C8.00065 2.76 8.42198 2.89867 8.71531 3.176C9.00865 3.448 9.15531 3.85333 9.15531 4.392V7H8.61131V6.344C8.48331 6.56267 8.29398 6.73333 8.04331 6.856C7.79798 6.97867 7.50465 7.04 7.16331 7.04C6.69398 7.04 6.32065 6.928 6.04331 6.704C5.76598 6.48 5.62731 6.184 5.62731 5.816C5.62731 5.45867 5.75531 5.17067 6.01131 4.952C6.27265 4.73333 6.68598 4.624 7.25131 4.624H8.58731V4.368C8.58731 4.00533 8.48598 3.73067 8.28331 3.544C8.08065 3.352 7.78465 3.256 7.39531 3.256C7.12865 3.256 6.87265 3.30133 6.62731 3.392C6.38198 3.47733 6.17131 3.59733 5.99531 3.752L5.73931 3.328C5.95265 3.14667 6.20865 3.008 6.50731 2.912C6.80598 2.81067 7.12065 2.76 7.45131 2.76ZM7.25131 6.592C7.57131 6.592 7.84598 6.52 8.07531 6.376C8.30465 6.22667 8.47531 6.01333 8.58731 5.736V5.048H7.26731C6.54731 5.048 6.18731 5.29867 6.18731 5.8C6.18731 6.04533 6.28065 6.24 6.46731 6.384C6.65398 6.52267 6.91531 6.592 7.25131 6.592ZM13.3474 4.824C13.918 4.95733 14.2034 5.30133 14.2034 5.856C14.2034 6.224 14.0674 6.50667 13.7954 6.704C13.5234 6.90133 13.118 7 12.5794 7H10.6674V2.792H12.5234C13.0034 2.792 13.3794 2.88533 13.6514 3.072C13.9234 3.25867 14.0594 3.52533 14.0594 3.872C14.0594 4.10133 13.9954 4.29867 13.8674 4.464C13.7447 4.624 13.5714 4.744 13.3474 4.824ZM11.2194 4.664H12.4834C12.8087 4.664 13.0567 4.60267 13.2274 4.48C13.4034 4.35733 13.4914 4.17867 13.4914 3.944C13.4914 3.70933 13.4034 3.53333 13.2274 3.416C13.0567 3.29867 12.8087 3.24 12.4834 3.24H11.2194V4.664ZM12.5554 6.552C12.918 6.552 13.19 6.49333 13.3714 6.376C13.5527 6.25867 13.6434 6.07467 13.6434 5.824C13.6434 5.57333 13.5607 5.38933 13.3954 5.272C13.23 5.14933 12.9687 5.088 12.6114 5.088H11.2194V6.552H12.5554ZM16.9826 2.76C17.5319 2.76 17.9532 2.89867 18.2466 3.176C18.5399 3.448 18.6866 3.85333 18.6866 4.392V7H18.1426V6.344C18.0146 6.56267 17.8252 6.73333 17.5746 6.856C17.3292 6.97867 17.0359 7.04 16.6946 7.04C16.2252 7.04 15.8519 6.928 15.5746 6.704C15.2972 6.48 15.1586 6.184 15.1586 5.816C15.1586 5.45867 15.2866 5.17067 15.5426 4.952C15.8039 4.73333 16.2172 4.624 16.7826 4.624H18.1186V4.368C18.1186 4.00533 18.0172 3.73067 17.8146 3.544C17.6119 3.352 17.3159 3.256 16.9266 3.256C16.6599 3.256 16.4039 3.30133 16.1586 3.392C15.9132 3.47733 15.7026 3.59733 15.5266 3.752L15.2706 3.328C15.4839 3.14667 15.7399 3.008 16.0386 2.912C16.3372 2.81067 16.6519 2.76 16.9826 2.76ZM16.7826 6.592C17.1026 6.592 17.3772 6.52 17.6066 6.376C17.8359 6.22667 18.0066 6.01333 18.1186 5.736V5.048H16.7986C16.0786 5.048 15.7186 5.29867 15.7186 5.8C15.7186 6.04533 15.8119 6.24 15.9986 6.384C16.1852 6.52267 16.4466 6.592 16.7826 6.592ZM22.3666 2.76C22.7613 2.76 23.1186 2.85067 23.4386 3.032C23.7586 3.208 24.0093 3.45867 24.1906 3.784C24.372 4.10933 24.4626 4.48 24.4626 4.896C24.4626 5.31733 24.372 5.69067 24.1906 6.016C24.0093 6.34133 23.7586 6.59467 23.4386 6.776C23.124 6.952 22.7666 7.04 22.3666 7.04C22.0253 7.04 21.716 6.97067 21.4386 6.832C21.1666 6.688 20.9426 6.48 20.7666 6.208V8.552H20.1986V2.792H20.7426V3.624C20.9133 3.34667 21.1373 3.13333 21.4146 2.984C21.6973 2.83467 22.0146 2.76 22.3666 2.76ZM22.3266 6.536C22.62 6.536 22.8866 6.46933 23.1266 6.336C23.3666 6.19733 23.5533 6.00267 23.6866 5.752C23.8253 5.50133 23.8946 5.216 23.8946 4.896C23.8946 4.576 23.8253 4.29333 23.6866 4.048C23.5533 3.79733 23.3666 3.60267 23.1266 3.464C22.8866 3.32533 22.62 3.256 22.3266 3.256C22.028 3.256 21.7586 3.32533 21.5186 3.464C21.284 3.60267 21.0973 3.79733 20.9586 4.048C20.8253 4.29333 20.7586 4.576 20.7586 4.896C20.7586 5.216 20.8253 5.50133 20.9586 5.752C21.0973 6.00267 21.284 6.19733 21.5186 6.336C21.7586 6.46933 22.028 6.536 22.3266 6.536ZM25.683 2.792H26.251V6.136L29.059 2.792H29.563V7H28.995V3.656L26.195 7H25.683V2.792ZM31.1908 2.792H31.7588V6.136L34.5668 2.792H35.0708V7H34.5028V3.656L31.7028 7H31.1908V2.792ZM33.1028 2.184C32.7401 2.184 32.4521 2.09333 32.2388 1.912C32.0255 1.73067 31.9161 1.47467 31.9108 1.144H32.3188C32.3241 1.352 32.3988 1.52 32.5428 1.648C32.6868 1.77067 32.8735 1.832 33.1028 1.832C33.3321 1.832 33.5188 1.77067 33.6628 1.648C33.8121 1.52 33.8895 1.352 33.8948 1.144H34.3028C34.2975 1.47467 34.1855 1.73067 33.9668 1.912C33.7535 2.09333 33.4655 2.184 33.1028 2.184ZM36.6986 2.792H37.2666V4.656H39.9146V2.792H40.4826V7H39.9146V5.144H37.2666V7H36.6986V2.792ZM43.5451 2.76C44.0944 2.76 44.5157 2.89867 44.8091 3.176C45.1024 3.448 45.2491 3.85333 45.2491 4.392V7H44.7051V6.344C44.5771 6.56267 44.3877 6.73333 44.1371 6.856C43.8917 6.97867 43.5984 7.04 43.2571 7.04C42.7877 7.04 42.4144 6.928 42.1371 6.704C41.8597 6.48 41.7211 6.184 41.7211 5.816C41.7211 5.45867 41.8491 5.17067 42.1051 4.952C42.3664 4.73333 42.7797 4.624 43.3451 4.624H44.6811V4.368C44.6811 4.00533 44.5797 3.73067 44.3771 3.544C44.1744 3.352 43.8784 3.256 43.4891 3.256C43.2224 3.256 42.9664 3.30133 42.7211 3.392C42.4757 3.47733 42.2651 3.59733 42.0891 3.752L41.8331 3.328C42.0464 3.14667 42.3024 3.008 42.6011 2.912C42.8997 2.81067 43.2144 2.76 43.5451 2.76ZM43.3451 6.592C43.6651 6.592 43.9397 6.52 44.1691 6.376C44.3984 6.22667 44.5691 6.01333 44.6811 5.736V5.048H43.3611C42.6411 5.048 42.2811 5.29867 42.2811 5.8C42.2811 6.04533 42.3744 6.24 42.5611 6.384C42.7477 6.52267 43.0091 6.592 43.3451 6.592ZM49.9931 2.792V7H49.4731V5.608H48.1531H47.9931L47.0171 7H46.4011L47.4491 5.528C47.1238 5.43733 46.8731 5.28267 46.6971 5.064C46.5211 4.84533 46.4331 4.568 46.4331 4.232C46.4331 3.76267 46.5931 3.40533 46.9131 3.16C47.2331 2.91467 47.6705 2.792 48.2251 2.792H49.9931ZM47.0091 4.248C47.0091 4.872 47.4065 5.184 48.2011 5.184H49.4731V3.296H48.2411C47.4198 3.296 47.0091 3.61333 47.0091 4.248Z" fill="#292F38"/>
<rect y="9" width="56" height="2" fill="#292F38"/>
<rect y="45" width="56" height="2" fill="#292F38"/>
</svg>
