<svg width="48" height="48" viewBox="0 0 48 48" fill="none" xmlns="http://www.w3.org/2000/svg">
<path d="M30.3918 24.3091L31.671 22.7717L30.3918 24.3091ZM17.6082 24.3091L18.8873 25.8466L17.6082 24.3091ZM20 12C20 9.79086 21.7909 8 24 8V4C19.5817 4 16 7.58172 16 12H20ZM20 23.4997V12H16V23.4997H20ZM16 32C16 29.5269 17.1198 27.3172 18.8873 25.8466L16.329 22.7717C13.6872 24.9697 12 28.2887 12 32H16ZM24 40C19.5817 40 16 36.4183 16 32H12C12 38.6274 17.3726 44 24 44V40ZM32 32C32 36.4183 28.4183 40 24 40V44C30.6274 44 36 38.6274 36 32H32ZM29.1127 25.8466C30.8802 27.3172 32 29.5269 32 32H36C36 28.2887 34.3128 24.9697 31.671 22.7717L29.1127 25.8466ZM28 12V23.4997H32V12H28ZM24 8C26.2091 8 28 9.79086 28 12H32C32 7.58172 28.4183 4 24 4V8ZM31.671 22.7717C31.844 22.9156 32 23.1676 32 23.4997H28C28 24.4608 28.4561 25.3003 29.1127 25.8466L31.671 22.7717ZM16 23.4997C16 23.1676 16.156 22.9156 16.329 22.7717L18.8873 25.8466C19.5439 25.3003 20 24.4608 20 23.4997H16Z" fill="#F2C94C"/>
<ellipse cx="24" cy="32" rx="4" ry="4" fill="#F2C94C"/>
</svg>
